<svg id="visual" viewBox="0 0 900 600" width="900" height="600" xmlns="http://www.w3.org/2000/svg" xmlns:xlink="http://www.w3.org/1999/xlink" version="1.1"><rect width="900" height="600" fill="#ffffff"></rect><g><g transform="translate(759 360)"><path d="M89 -30.7C99.5 3.2 81 44.7 49.4 67.6C17.7 90.5 -27.2 94.9 -54.8 74.9C-82.5 55 -92.8 10.7 -80.8 -25.3C-68.8 -61.3 -34.4 -89.1 2.4 -89.9C39.3 -90.7 78.6 -64.5 89 -30.7Z" fill="#fa8b46"></path></g><g transform="translate(161 406)"><path d="M50.9 -16.2C57.2 3 47.6 27.7 30.3 39.9C12.9 52.1 -12.3 51.8 -29.7 39.5C-47 27.2 -56.6 2.8 -50.4 -16.2C-44.1 -35.3 -22.1 -49 0.1 -49C22.3 -49.1 44.5 -35.4 50.9 -16.2Z" fill="#fa8b46"></path></g><g transform="translate(456 390)"><path d="M33.6 -12.6C37.8 2.2 31.6 18.6 19.7 27.3C7.8 35.9 -9.8 36.8 -22.5 28.2C-35.2 19.7 -42.9 1.6 -38.3 -13.6C-33.8 -28.7 -16.9 -41 -1.1 -40.6C14.7 -40.3 29.3 -27.3 33.6 -12.6Z" fill="#fa8b46"></path></g><g transform="translate(578 140)"><path d="M52.6 -17.3C60.5 7.4 54.1 36.5 35.9 49.9C17.6 63.3 -12.5 61 -32.9 46C-53.2 31 -63.9 3.4 -56.8 -20.1C-49.7 -43.6 -24.9 -63 -1.3 -62.5C22.3 -62.1 44.6 -41.9 52.6 -17.3Z" fill="#fa8b46"></path></g><g transform="translate(280 155)"><path d="M15.7 -5.2C17.6 0.7 14.5 8.2 8.8 12.3C3.2 16.5 -5 17.3 -10 13.7C-14.9 10.1 -16.7 2 -14.5 -4.3C-12.3 -10.7 -6.2 -15.4 0.4 -15.5C6.9 -15.6 13.8 -11.2 15.7 -5.2Z" fill="#fa8b46"></path></g></g></svg>