<svg id="visual" viewBox="0 0 1920 1080" width="1920" height="1080" xmlns="http://www.w3.org/2000/svg" xmlns:xlink="http://www.w3.org/1999/xlink" version="1.1"><rect x="0" y="0" width="1920" height="1080" fill="#ffffff"></rect><path d="M0 238L45.7 223.3C91.3 208.7 182.7 179.3 274.2 178.3C365.7 177.3 457.3 204.7 548.8 199.3C640.3 194 731.7 156 823 147.3C914.3 138.7 1005.7 159.3 1097 156C1188.3 152.7 1279.7 125.3 1371.2 130.5C1462.7 135.7 1554.3 173.3 1645.8 171.8C1737.3 170.3 1828.7 129.7 1874.3 109.3L1920 89L1920 0L1874.3 0C1828.7 0 1737.3 0 1645.8 0C1554.3 0 1462.7 0 1371.2 0C1279.7 0 1188.3 0 1097 0C1005.7 0 914.3 0 823 0C731.7 0 640.3 0 548.8 0C457.3 0 365.7 0 274.2 0C182.7 0 91.3 0 45.7 0L0 0Z" fill="#fa8b46" stroke-linecap="round" stroke-linejoin="miter"></path></svg>