<svg id="visual" viewBox="0 0 1920 1080" width="1920" height="1080" xmlns="http://www.w3.org/2000/svg" xmlns:xlink="http://www.w3.org/1999/xlink" version="1.1"><rect x="0" y="0" width="1920" height="1080" fill="#ffffff"></rect><path d="M0 840L45.7 854.7C91.3 869.3 182.7 898.7 274.2 899.7C365.7 900.7 457.3 873.3 548.8 878.7C640.3 884 731.7 922 823 930.7C914.3 939.3 1005.7 918.7 1097 922C1188.3 925.3 1279.7 952.7 1371.2 947.5C1462.7 942.3 1554.3 904.7 1645.8 906.2C1737.3 907.7 1828.7 948.3 1874.3 968.7L1920 989L1920 1081L1874.3 1081C1828.7 1081 1737.3 1081 1645.8 1081C1554.3 1081 1462.7 1081 1371.2 1081C1279.7 1081 1188.3 1081 1097 1081C1005.7 1081 914.3 1081 823 1081C731.7 1081 640.3 1081 548.8 1081C457.3 1081 365.7 1081 274.2 1081C182.7 1081 91.3 1081 45.7 1081L0 1081Z" fill="#fa8b46" stroke-linecap="round" stroke-linejoin="miter"></path></svg>